<svg width="256" height="256" viewBox="0 0 256 256" fill="none" xmlns="http://www.w3.org/2000/svg">
  <defs>
    <linearGradient id="mark-gradient" x1="42" y1="22" x2="214" y2="224" gradientUnits="userSpaceOnUse">
      <stop offset="0" stop-color="#18E4D3"/>
      <stop offset="0.52" stop-color="#19A5F7"/>
      <stop offset="1" stop-color="#1954FF"/>
    </linearGradient>
    <linearGradient id="mark-trail" x1="22" y1="114" x2="96" y2="150" gradientUnits="userSpaceOnUse">
      <stop offset="0" stop-color="#18E4D3"/>
      <stop offset="1" stop-color="#1960FF"/>
    </linearGradient>
  </defs>

  <path d="M188 40C171 24 149 16 123 16C81 16 46 40 34 74L64 71C73 49 95 34 123 34C142 34 158 40 171 51L188 40Z" fill="url(#mark-gradient)"/>
  <path d="M34 82C43 118 78 144 123 144C157 144 186 130 204 107L183 92C170 109 148 120 123 120C95 120 71 106 61 84L34 82Z" fill="url(#mark-gradient)"/>
  <path d="M14 77H69" stroke="url(#mark-trail)" stroke-width="8" stroke-linecap="round"/>
  <path d="M0 77H6" stroke="url(#mark-trail)" stroke-width="8" stroke-linecap="round"/>
  <path d="M12 93H55C66 93 74 85 74 75V75" stroke="url(#mark-trail)" stroke-width="8" stroke-linecap="round" stroke-linejoin="round"/>
  <path d="M55 61H108C122 61 136 66 147 74L159 84C162 87 166 88 170 89L191 91C207 92 222 99 233 110" stroke="white" stroke-width="5.5" stroke-linecap="round" stroke-linejoin="round"/>
  <path d="M72 60C101 60 116 49 141 49C159 49 176 53 192 61" stroke="white" stroke-width="5.5" stroke-linecap="round"/>
  <path d="M126 100H177C180 91 184 85 190 80C196 75 204 72 214 72C230 72 243 78 252 90" stroke="white" stroke-width="5.5" stroke-linecap="round" stroke-linejoin="round"/>
  <path d="M227 76H246L256 83H236C229 83 223 80 218 75" fill="white"/>
</svg>
