<svg width="768" height="270" viewBox="0 0 768 270" fill="none" xmlns="http://www.w3.org/2000/svg">
  <defs>
    <linearGradient id="cleanify-gradient" x1="112" y1="26" x2="540" y2="214" gradientUnits="userSpaceOnUse">
      <stop offset="0" stop-color="#18E4D3"/>
      <stop offset="0.52" stop-color="#19A5F7"/>
      <stop offset="1" stop-color="#1954FF"/>
    </linearGradient>
    <linearGradient id="cleanify-trail" x1="54" y1="112" x2="210" y2="152" gradientUnits="userSpaceOnUse">
      <stop offset="0" stop-color="#18E4D3"/>
      <stop offset="1" stop-color="#1960FF"/>
    </linearGradient>
  </defs>

  <path d="M485 45C451 15 405 0 353 0C262 0 186 53 163 126L227 121C247 73 295 39 353 39C388 39 421 51 447 73L485 45Z" fill="url(#cleanify-gradient)"/>
  <path d="M162 142C182 217 257 270 353 270C426 270 489 238 525 190L480 158C453 195 407 219 353 219C293 219 242 189 222 145L162 142Z" fill="url(#cleanify-gradient)"/>
  <path d="M56 132H172" stroke="url(#cleanify-trail)" stroke-width="17" stroke-linecap="round"/>
  <path d="M20 132H34" stroke="url(#cleanify-trail)" stroke-width="17" stroke-linecap="round"/>
  <path d="M46 166H144C165 166 182 149 182 128V128" stroke="url(#cleanify-trail)" stroke-width="17" stroke-linecap="round" stroke-linejoin="round"/>
  <path d="M102 100H321C352 100 382 110 405 129L430 150C437 156 445 160 454 161L500 165C533 168 564 181 588 204" stroke="white" stroke-width="11" stroke-linecap="round" stroke-linejoin="round"/>
  <path d="M144 98C207 98 239 75 294 74C334 74 372 82 406 100" stroke="white" stroke-width="11" stroke-linecap="round"/>
  <path d="M360 181H474C480 162 489 149 503 138C518 127 534 122 556 122C591 122 619 136 640 163" stroke="white" stroke-width="11" stroke-linecap="round" stroke-linejoin="round"/>
  <path d="M585 131H670L696 147H644C626 147 609 140 595 128" fill="white"/>
  <text x="142" y="233" fill="white" font-family="Sora, Manrope, Arial, sans-serif" font-size="96" font-weight="500" letter-spacing="-4">Cleanify</text>
  <text x="529" y="233" fill="url(#cleanify-gradient)" font-family="Sora, Manrope, Arial, sans-serif" font-size="96" font-weight="700" letter-spacing="-4">AI</text>
  <line x1="48" y1="256" x2="111" y2="256" stroke="#18E4D3" stroke-width="4" stroke-linecap="round"/>
  <line x1="654" y1="256" x2="717" y2="256" stroke="#18E4D3" stroke-width="4" stroke-linecap="round"/>
  <text x="138" y="262" fill="#2A9BFF" font-family="Sora, Manrope, Arial, sans-serif" font-size="22" font-weight="500" letter-spacing="7">SOFTWARE PARA ESTETICAS AUTOMOTIVAS</text>
</svg>
